<mxfile host="Electron" modified="2023-07-05T15:55:55.438Z" agent="Mozilla/5.0 (Macintosh; Intel Mac OS X 10_15_7) AppleWebKit/537.36 (KHTML, like Gecko) draw.io/21.5.1 Chrome/112.0.5615.204 Electron/24.6.0 Safari/537.36" etag="MhK0P6g3fk0HP0dWGuNP" version="21.5.1" type="device">
  <diagram name="Page-1" id="r9sOwua5jrxRKyu3_LaV">
    <mxGraphModel dx="1114" dy="999" grid="1" gridSize="10" guides="1" tooltips="1" connect="1" arrows="1" fold="1" page="1" pageScale="1" pageWidth="850" pageHeight="1100" math="0" shadow="0">
      <root>
        <mxCell id="0" />
        <mxCell id="1" parent="0" />
        <mxCell id="tcnb4MMandcfEHIUBVuy-1" value="&lt;font style=&quot;font-size: 28px;&quot;&gt;Stored File 1&lt;/font&gt;" style="shape=note;whiteSpace=wrap;html=1;backgroundOutline=1;darkOpacity=0.05;sketch=1;hachureGap=4;jiggle=2;curveFitting=1;fontFamily=Architects Daughter;fontSource=https%3A%2F%2Ffonts.googleapis.com%2Fcss%3Ffamily%3DArchitects%2BDaughter;fontSize=20;fillColor=#fff2cc;strokeWidth=3;strokeColor=#d6b656;" vertex="1" parent="1">
          <mxGeometry x="275" y="580" width="230" height="70" as="geometry" />
        </mxCell>
        <mxCell id="tcnb4MMandcfEHIUBVuy-2" value="&lt;font style=&quot;font-size: 28px;&quot;&gt;Stored File 2&lt;/font&gt;" style="shape=note;whiteSpace=wrap;html=1;backgroundOutline=1;darkOpacity=0.05;sketch=1;hachureGap=4;jiggle=2;curveFitting=1;fontFamily=Architects Daughter;fontSource=https%3A%2F%2Ffonts.googleapis.com%2Fcss%3Ffamily%3DArchitects%2BDaughter;fontSize=20;fillColor=#fff2cc;strokeWidth=3;strokeColor=#d6b656;" vertex="1" parent="1">
          <mxGeometry x="675" y="580" width="230" height="70" as="geometry" />
        </mxCell>
        <mxCell id="tcnb4MMandcfEHIUBVuy-92" style="edgeStyle=orthogonalEdgeStyle;shape=connector;rounded=0;sketch=1;hachureGap=4;jiggle=2;curveFitting=1;orthogonalLoop=1;jettySize=auto;html=1;exitX=0.5;exitY=1;exitDx=0;exitDy=0;entryX=0;entryY=0;entryDx=100;entryDy=0;entryPerimeter=0;labelBackgroundColor=default;strokeColor=default;strokeWidth=3;fontFamily=Architects Daughter;fontSource=https%3A%2F%2Ffonts.googleapis.com%2Fcss%3Ffamily%3DArchitects%2BDaughter;fontSize=16;fontColor=default;startArrow=classic;startFill=1;endArrow=classic;" edge="1" parent="1" source="tcnb4MMandcfEHIUBVuy-3" target="tcnb4MMandcfEHIUBVuy-1">
          <mxGeometry relative="1" as="geometry" />
        </mxCell>
        <mxCell id="tcnb4MMandcfEHIUBVuy-3" value="Basic Table 1" style="shape=table;startSize=30;container=1;collapsible=0;childLayout=tableLayout;strokeColor=#6c8ebf;fontSize=28;sketch=1;hachureGap=4;jiggle=2;curveFitting=1;fontFamily=FZJingLeiS-R-GB;fillColor=#dae8fc;strokeWidth=3;fontStyle=1" vertex="1" parent="1">
          <mxGeometry x="110" y="420" width="160" height="80" as="geometry" />
        </mxCell>
        <mxCell id="tcnb4MMandcfEHIUBVuy-4" value="" style="shape=tableRow;horizontal=0;startSize=0;swimlaneHead=0;swimlaneBody=0;strokeColor=#6c8ebf;top=0;left=0;bottom=0;right=0;collapsible=0;dropTarget=0;fillColor=#dae8fc;points=[[0,0.5],[1,0.5]];portConstraint=eastwest;fontSize=16;sketch=1;hachureGap=4;jiggle=2;curveFitting=1;fontFamily=Architects Daughter;fontSource=https%3A%2F%2Ffonts.googleapis.com%2Fcss%3Ffamily%3DArchitects%2BDaughter;" vertex="1" parent="tcnb4MMandcfEHIUBVuy-3">
          <mxGeometry y="30" width="160" height="17" as="geometry" />
        </mxCell>
        <mxCell id="tcnb4MMandcfEHIUBVuy-5" value="" style="shape=partialRectangle;html=1;whiteSpace=wrap;connectable=0;strokeColor=#6c8ebf;overflow=hidden;fillColor=#dae8fc;top=0;left=0;bottom=0;right=0;pointerEvents=1;fontSize=16;sketch=1;hachureGap=4;jiggle=2;curveFitting=1;fontFamily=Architects Daughter;fontSource=https%3A%2F%2Ffonts.googleapis.com%2Fcss%3Ffamily%3DArchitects%2BDaughter;" vertex="1" parent="tcnb4MMandcfEHIUBVuy-4">
          <mxGeometry width="53" height="17" as="geometry">
            <mxRectangle width="53" height="17" as="alternateBounds" />
          </mxGeometry>
        </mxCell>
        <mxCell id="tcnb4MMandcfEHIUBVuy-6" value="" style="shape=partialRectangle;html=1;whiteSpace=wrap;connectable=0;strokeColor=#6c8ebf;overflow=hidden;fillColor=#dae8fc;top=0;left=0;bottom=0;right=0;pointerEvents=1;fontSize=16;sketch=1;hachureGap=4;jiggle=2;curveFitting=1;fontFamily=Architects Daughter;fontSource=https%3A%2F%2Ffonts.googleapis.com%2Fcss%3Ffamily%3DArchitects%2BDaughter;" vertex="1" parent="tcnb4MMandcfEHIUBVuy-4">
          <mxGeometry x="53" width="54" height="17" as="geometry">
            <mxRectangle width="54" height="17" as="alternateBounds" />
          </mxGeometry>
        </mxCell>
        <mxCell id="tcnb4MMandcfEHIUBVuy-7" value="" style="shape=partialRectangle;html=1;whiteSpace=wrap;connectable=0;strokeColor=#6c8ebf;overflow=hidden;fillColor=#dae8fc;top=0;left=0;bottom=0;right=0;pointerEvents=1;fontSize=16;sketch=1;hachureGap=4;jiggle=2;curveFitting=1;fontFamily=Architects Daughter;fontSource=https%3A%2F%2Ffonts.googleapis.com%2Fcss%3Ffamily%3DArchitects%2BDaughter;" vertex="1" parent="tcnb4MMandcfEHIUBVuy-4">
          <mxGeometry x="107" width="53" height="17" as="geometry">
            <mxRectangle width="53" height="17" as="alternateBounds" />
          </mxGeometry>
        </mxCell>
        <mxCell id="tcnb4MMandcfEHIUBVuy-8" value="" style="shape=tableRow;horizontal=0;startSize=0;swimlaneHead=0;swimlaneBody=0;strokeColor=#6c8ebf;top=0;left=0;bottom=0;right=0;collapsible=0;dropTarget=0;fillColor=#dae8fc;points=[[0,0.5],[1,0.5]];portConstraint=eastwest;fontSize=16;sketch=1;hachureGap=4;jiggle=2;curveFitting=1;fontFamily=Architects Daughter;fontSource=https%3A%2F%2Ffonts.googleapis.com%2Fcss%3Ffamily%3DArchitects%2BDaughter;" vertex="1" parent="tcnb4MMandcfEHIUBVuy-3">
          <mxGeometry y="47" width="160" height="16" as="geometry" />
        </mxCell>
        <mxCell id="tcnb4MMandcfEHIUBVuy-9" value="" style="shape=partialRectangle;html=1;whiteSpace=wrap;connectable=0;strokeColor=#6c8ebf;overflow=hidden;fillColor=#dae8fc;top=0;left=0;bottom=0;right=0;pointerEvents=1;fontSize=16;sketch=1;hachureGap=4;jiggle=2;curveFitting=1;fontFamily=Architects Daughter;fontSource=https%3A%2F%2Ffonts.googleapis.com%2Fcss%3Ffamily%3DArchitects%2BDaughter;" vertex="1" parent="tcnb4MMandcfEHIUBVuy-8">
          <mxGeometry width="53" height="16" as="geometry">
            <mxRectangle width="53" height="16" as="alternateBounds" />
          </mxGeometry>
        </mxCell>
        <mxCell id="tcnb4MMandcfEHIUBVuy-10" value="" style="shape=partialRectangle;html=1;whiteSpace=wrap;connectable=0;strokeColor=#6c8ebf;overflow=hidden;fillColor=#dae8fc;top=0;left=0;bottom=0;right=0;pointerEvents=1;fontSize=16;sketch=1;hachureGap=4;jiggle=2;curveFitting=1;fontFamily=Architects Daughter;fontSource=https%3A%2F%2Ffonts.googleapis.com%2Fcss%3Ffamily%3DArchitects%2BDaughter;" vertex="1" parent="tcnb4MMandcfEHIUBVuy-8">
          <mxGeometry x="53" width="54" height="16" as="geometry">
            <mxRectangle width="54" height="16" as="alternateBounds" />
          </mxGeometry>
        </mxCell>
        <mxCell id="tcnb4MMandcfEHIUBVuy-11" value="" style="shape=partialRectangle;html=1;whiteSpace=wrap;connectable=0;strokeColor=#6c8ebf;overflow=hidden;fillColor=#dae8fc;top=0;left=0;bottom=0;right=0;pointerEvents=1;fontSize=16;sketch=1;hachureGap=4;jiggle=2;curveFitting=1;fontFamily=Architects Daughter;fontSource=https%3A%2F%2Ffonts.googleapis.com%2Fcss%3Ffamily%3DArchitects%2BDaughter;" vertex="1" parent="tcnb4MMandcfEHIUBVuy-8">
          <mxGeometry x="107" width="53" height="16" as="geometry">
            <mxRectangle width="53" height="16" as="alternateBounds" />
          </mxGeometry>
        </mxCell>
        <mxCell id="tcnb4MMandcfEHIUBVuy-12" value="" style="shape=tableRow;horizontal=0;startSize=0;swimlaneHead=0;swimlaneBody=0;strokeColor=#6c8ebf;top=0;left=0;bottom=0;right=0;collapsible=0;dropTarget=0;fillColor=#dae8fc;points=[[0,0.5],[1,0.5]];portConstraint=eastwest;fontSize=16;sketch=1;hachureGap=4;jiggle=2;curveFitting=1;fontFamily=Architects Daughter;fontSource=https%3A%2F%2Ffonts.googleapis.com%2Fcss%3Ffamily%3DArchitects%2BDaughter;" vertex="1" parent="tcnb4MMandcfEHIUBVuy-3">
          <mxGeometry y="63" width="160" height="17" as="geometry" />
        </mxCell>
        <mxCell id="tcnb4MMandcfEHIUBVuy-13" value="" style="shape=partialRectangle;html=1;whiteSpace=wrap;connectable=0;strokeColor=#6c8ebf;overflow=hidden;fillColor=#dae8fc;top=0;left=0;bottom=0;right=0;pointerEvents=1;fontSize=16;sketch=1;hachureGap=4;jiggle=2;curveFitting=1;fontFamily=Architects Daughter;fontSource=https%3A%2F%2Ffonts.googleapis.com%2Fcss%3Ffamily%3DArchitects%2BDaughter;" vertex="1" parent="tcnb4MMandcfEHIUBVuy-12">
          <mxGeometry width="53" height="17" as="geometry">
            <mxRectangle width="53" height="17" as="alternateBounds" />
          </mxGeometry>
        </mxCell>
        <mxCell id="tcnb4MMandcfEHIUBVuy-14" value="" style="shape=partialRectangle;html=1;whiteSpace=wrap;connectable=0;strokeColor=#6c8ebf;overflow=hidden;fillColor=#dae8fc;top=0;left=0;bottom=0;right=0;pointerEvents=1;fontSize=16;sketch=1;hachureGap=4;jiggle=2;curveFitting=1;fontFamily=Architects Daughter;fontSource=https%3A%2F%2Ffonts.googleapis.com%2Fcss%3Ffamily%3DArchitects%2BDaughter;" vertex="1" parent="tcnb4MMandcfEHIUBVuy-12">
          <mxGeometry x="53" width="54" height="17" as="geometry">
            <mxRectangle width="54" height="17" as="alternateBounds" />
          </mxGeometry>
        </mxCell>
        <mxCell id="tcnb4MMandcfEHIUBVuy-15" value="" style="shape=partialRectangle;html=1;whiteSpace=wrap;connectable=0;strokeColor=#6c8ebf;overflow=hidden;fillColor=#dae8fc;top=0;left=0;bottom=0;right=0;pointerEvents=1;fontSize=16;sketch=1;hachureGap=4;jiggle=2;curveFitting=1;fontFamily=Architects Daughter;fontSource=https%3A%2F%2Ffonts.googleapis.com%2Fcss%3Ffamily%3DArchitects%2BDaughter;" vertex="1" parent="tcnb4MMandcfEHIUBVuy-12">
          <mxGeometry x="107" width="53" height="17" as="geometry">
            <mxRectangle width="53" height="17" as="alternateBounds" />
          </mxGeometry>
        </mxCell>
        <mxCell id="tcnb4MMandcfEHIUBVuy-93" style="edgeStyle=orthogonalEdgeStyle;shape=connector;rounded=0;sketch=1;hachureGap=4;jiggle=2;curveFitting=1;orthogonalLoop=1;jettySize=auto;html=1;exitX=0.5;exitY=1;exitDx=0;exitDy=0;entryX=0.5;entryY=0;entryDx=0;entryDy=0;entryPerimeter=0;labelBackgroundColor=default;strokeColor=default;strokeWidth=3;fontFamily=Architects Daughter;fontSource=https%3A%2F%2Ffonts.googleapis.com%2Fcss%3Ffamily%3DArchitects%2BDaughter;fontSize=16;fontColor=default;startArrow=classic;startFill=1;endArrow=classic;" edge="1" parent="1" source="tcnb4MMandcfEHIUBVuy-16" target="tcnb4MMandcfEHIUBVuy-1">
          <mxGeometry relative="1" as="geometry" />
        </mxCell>
        <mxCell id="tcnb4MMandcfEHIUBVuy-16" value="Basic Table 2" style="shape=table;startSize=30;container=1;collapsible=0;childLayout=tableLayout;strokeColor=#6c8ebf;fontSize=28;sketch=1;hachureGap=4;jiggle=2;curveFitting=1;fontFamily=FZJingLeiS-R-GB;fillColor=#dae8fc;strokeWidth=3;fontStyle=1" vertex="1" parent="1">
          <mxGeometry x="310" y="420" width="160" height="80" as="geometry" />
        </mxCell>
        <mxCell id="tcnb4MMandcfEHIUBVuy-17" value="" style="shape=tableRow;horizontal=0;startSize=0;swimlaneHead=0;swimlaneBody=0;strokeColor=#6c8ebf;top=0;left=0;bottom=0;right=0;collapsible=0;dropTarget=0;fillColor=#dae8fc;points=[[0,0.5],[1,0.5]];portConstraint=eastwest;fontSize=16;sketch=1;hachureGap=4;jiggle=2;curveFitting=1;fontFamily=Architects Daughter;fontSource=https%3A%2F%2Ffonts.googleapis.com%2Fcss%3Ffamily%3DArchitects%2BDaughter;" vertex="1" parent="tcnb4MMandcfEHIUBVuy-16">
          <mxGeometry y="30" width="160" height="17" as="geometry" />
        </mxCell>
        <mxCell id="tcnb4MMandcfEHIUBVuy-18" value="" style="shape=partialRectangle;html=1;whiteSpace=wrap;connectable=0;strokeColor=#6c8ebf;overflow=hidden;fillColor=#dae8fc;top=0;left=0;bottom=0;right=0;pointerEvents=1;fontSize=16;sketch=1;hachureGap=4;jiggle=2;curveFitting=1;fontFamily=Architects Daughter;fontSource=https%3A%2F%2Ffonts.googleapis.com%2Fcss%3Ffamily%3DArchitects%2BDaughter;" vertex="1" parent="tcnb4MMandcfEHIUBVuy-17">
          <mxGeometry width="53" height="17" as="geometry">
            <mxRectangle width="53" height="17" as="alternateBounds" />
          </mxGeometry>
        </mxCell>
        <mxCell id="tcnb4MMandcfEHIUBVuy-19" value="" style="shape=partialRectangle;html=1;whiteSpace=wrap;connectable=0;strokeColor=#6c8ebf;overflow=hidden;fillColor=#dae8fc;top=0;left=0;bottom=0;right=0;pointerEvents=1;fontSize=16;sketch=1;hachureGap=4;jiggle=2;curveFitting=1;fontFamily=Architects Daughter;fontSource=https%3A%2F%2Ffonts.googleapis.com%2Fcss%3Ffamily%3DArchitects%2BDaughter;" vertex="1" parent="tcnb4MMandcfEHIUBVuy-17">
          <mxGeometry x="53" width="54" height="17" as="geometry">
            <mxRectangle width="54" height="17" as="alternateBounds" />
          </mxGeometry>
        </mxCell>
        <mxCell id="tcnb4MMandcfEHIUBVuy-20" value="" style="shape=partialRectangle;html=1;whiteSpace=wrap;connectable=0;strokeColor=#6c8ebf;overflow=hidden;fillColor=#dae8fc;top=0;left=0;bottom=0;right=0;pointerEvents=1;fontSize=16;sketch=1;hachureGap=4;jiggle=2;curveFitting=1;fontFamily=Architects Daughter;fontSource=https%3A%2F%2Ffonts.googleapis.com%2Fcss%3Ffamily%3DArchitects%2BDaughter;" vertex="1" parent="tcnb4MMandcfEHIUBVuy-17">
          <mxGeometry x="107" width="53" height="17" as="geometry">
            <mxRectangle width="53" height="17" as="alternateBounds" />
          </mxGeometry>
        </mxCell>
        <mxCell id="tcnb4MMandcfEHIUBVuy-21" value="" style="shape=tableRow;horizontal=0;startSize=0;swimlaneHead=0;swimlaneBody=0;strokeColor=#6c8ebf;top=0;left=0;bottom=0;right=0;collapsible=0;dropTarget=0;fillColor=#dae8fc;points=[[0,0.5],[1,0.5]];portConstraint=eastwest;fontSize=16;sketch=1;hachureGap=4;jiggle=2;curveFitting=1;fontFamily=Architects Daughter;fontSource=https%3A%2F%2Ffonts.googleapis.com%2Fcss%3Ffamily%3DArchitects%2BDaughter;" vertex="1" parent="tcnb4MMandcfEHIUBVuy-16">
          <mxGeometry y="47" width="160" height="16" as="geometry" />
        </mxCell>
        <mxCell id="tcnb4MMandcfEHIUBVuy-22" value="" style="shape=partialRectangle;html=1;whiteSpace=wrap;connectable=0;strokeColor=#6c8ebf;overflow=hidden;fillColor=#dae8fc;top=0;left=0;bottom=0;right=0;pointerEvents=1;fontSize=16;sketch=1;hachureGap=4;jiggle=2;curveFitting=1;fontFamily=Architects Daughter;fontSource=https%3A%2F%2Ffonts.googleapis.com%2Fcss%3Ffamily%3DArchitects%2BDaughter;" vertex="1" parent="tcnb4MMandcfEHIUBVuy-21">
          <mxGeometry width="53" height="16" as="geometry">
            <mxRectangle width="53" height="16" as="alternateBounds" />
          </mxGeometry>
        </mxCell>
        <mxCell id="tcnb4MMandcfEHIUBVuy-23" value="" style="shape=partialRectangle;html=1;whiteSpace=wrap;connectable=0;strokeColor=#6c8ebf;overflow=hidden;fillColor=#dae8fc;top=0;left=0;bottom=0;right=0;pointerEvents=1;fontSize=16;sketch=1;hachureGap=4;jiggle=2;curveFitting=1;fontFamily=Architects Daughter;fontSource=https%3A%2F%2Ffonts.googleapis.com%2Fcss%3Ffamily%3DArchitects%2BDaughter;" vertex="1" parent="tcnb4MMandcfEHIUBVuy-21">
          <mxGeometry x="53" width="54" height="16" as="geometry">
            <mxRectangle width="54" height="16" as="alternateBounds" />
          </mxGeometry>
        </mxCell>
        <mxCell id="tcnb4MMandcfEHIUBVuy-24" value="" style="shape=partialRectangle;html=1;whiteSpace=wrap;connectable=0;strokeColor=#6c8ebf;overflow=hidden;fillColor=#dae8fc;top=0;left=0;bottom=0;right=0;pointerEvents=1;fontSize=16;sketch=1;hachureGap=4;jiggle=2;curveFitting=1;fontFamily=Architects Daughter;fontSource=https%3A%2F%2Ffonts.googleapis.com%2Fcss%3Ffamily%3DArchitects%2BDaughter;" vertex="1" parent="tcnb4MMandcfEHIUBVuy-21">
          <mxGeometry x="107" width="53" height="16" as="geometry">
            <mxRectangle width="53" height="16" as="alternateBounds" />
          </mxGeometry>
        </mxCell>
        <mxCell id="tcnb4MMandcfEHIUBVuy-25" value="" style="shape=tableRow;horizontal=0;startSize=0;swimlaneHead=0;swimlaneBody=0;strokeColor=#6c8ebf;top=0;left=0;bottom=0;right=0;collapsible=0;dropTarget=0;fillColor=#dae8fc;points=[[0,0.5],[1,0.5]];portConstraint=eastwest;fontSize=16;sketch=1;hachureGap=4;jiggle=2;curveFitting=1;fontFamily=Architects Daughter;fontSource=https%3A%2F%2Ffonts.googleapis.com%2Fcss%3Ffamily%3DArchitects%2BDaughter;" vertex="1" parent="tcnb4MMandcfEHIUBVuy-16">
          <mxGeometry y="63" width="160" height="17" as="geometry" />
        </mxCell>
        <mxCell id="tcnb4MMandcfEHIUBVuy-26" value="" style="shape=partialRectangle;html=1;whiteSpace=wrap;connectable=0;strokeColor=#6c8ebf;overflow=hidden;fillColor=#dae8fc;top=0;left=0;bottom=0;right=0;pointerEvents=1;fontSize=16;sketch=1;hachureGap=4;jiggle=2;curveFitting=1;fontFamily=Architects Daughter;fontSource=https%3A%2F%2Ffonts.googleapis.com%2Fcss%3Ffamily%3DArchitects%2BDaughter;" vertex="1" parent="tcnb4MMandcfEHIUBVuy-25">
          <mxGeometry width="53" height="17" as="geometry">
            <mxRectangle width="53" height="17" as="alternateBounds" />
          </mxGeometry>
        </mxCell>
        <mxCell id="tcnb4MMandcfEHIUBVuy-27" value="" style="shape=partialRectangle;html=1;whiteSpace=wrap;connectable=0;strokeColor=#6c8ebf;overflow=hidden;fillColor=#dae8fc;top=0;left=0;bottom=0;right=0;pointerEvents=1;fontSize=16;sketch=1;hachureGap=4;jiggle=2;curveFitting=1;fontFamily=Architects Daughter;fontSource=https%3A%2F%2Ffonts.googleapis.com%2Fcss%3Ffamily%3DArchitects%2BDaughter;" vertex="1" parent="tcnb4MMandcfEHIUBVuy-25">
          <mxGeometry x="53" width="54" height="17" as="geometry">
            <mxRectangle width="54" height="17" as="alternateBounds" />
          </mxGeometry>
        </mxCell>
        <mxCell id="tcnb4MMandcfEHIUBVuy-28" value="" style="shape=partialRectangle;html=1;whiteSpace=wrap;connectable=0;strokeColor=#6c8ebf;overflow=hidden;fillColor=#dae8fc;top=0;left=0;bottom=0;right=0;pointerEvents=1;fontSize=16;sketch=1;hachureGap=4;jiggle=2;curveFitting=1;fontFamily=Architects Daughter;fontSource=https%3A%2F%2Ffonts.googleapis.com%2Fcss%3Ffamily%3DArchitects%2BDaughter;" vertex="1" parent="tcnb4MMandcfEHIUBVuy-25">
          <mxGeometry x="107" width="53" height="17" as="geometry">
            <mxRectangle width="53" height="17" as="alternateBounds" />
          </mxGeometry>
        </mxCell>
        <mxCell id="tcnb4MMandcfEHIUBVuy-94" style="edgeStyle=orthogonalEdgeStyle;shape=connector;rounded=0;sketch=1;hachureGap=4;jiggle=2;curveFitting=1;orthogonalLoop=1;jettySize=auto;html=1;exitX=0.5;exitY=1;exitDx=0;exitDy=0;entryX=0.587;entryY=0;entryDx=0;entryDy=0;entryPerimeter=0;labelBackgroundColor=default;strokeColor=default;strokeWidth=3;fontFamily=Architects Daughter;fontSource=https%3A%2F%2Ffonts.googleapis.com%2Fcss%3Ffamily%3DArchitects%2BDaughter;fontSize=16;fontColor=default;startArrow=classic;startFill=1;endArrow=classic;" edge="1" parent="1" source="tcnb4MMandcfEHIUBVuy-29" target="tcnb4MMandcfEHIUBVuy-1">
          <mxGeometry relative="1" as="geometry" />
        </mxCell>
        <mxCell id="tcnb4MMandcfEHIUBVuy-29" value="Basic Table 3" style="shape=table;startSize=30;container=1;collapsible=0;childLayout=tableLayout;strokeColor=#6c8ebf;fontSize=28;sketch=1;hachureGap=4;jiggle=2;curveFitting=1;fontFamily=FZJingLeiS-R-GB;fillColor=#dae8fc;strokeWidth=3;fontStyle=1" vertex="1" parent="1">
          <mxGeometry x="510" y="420" width="160" height="80" as="geometry" />
        </mxCell>
        <mxCell id="tcnb4MMandcfEHIUBVuy-30" value="" style="shape=tableRow;horizontal=0;startSize=0;swimlaneHead=0;swimlaneBody=0;strokeColor=#6c8ebf;top=0;left=0;bottom=0;right=0;collapsible=0;dropTarget=0;fillColor=#dae8fc;points=[[0,0.5],[1,0.5]];portConstraint=eastwest;fontSize=16;sketch=1;hachureGap=4;jiggle=2;curveFitting=1;fontFamily=Architects Daughter;fontSource=https%3A%2F%2Ffonts.googleapis.com%2Fcss%3Ffamily%3DArchitects%2BDaughter;" vertex="1" parent="tcnb4MMandcfEHIUBVuy-29">
          <mxGeometry y="30" width="160" height="17" as="geometry" />
        </mxCell>
        <mxCell id="tcnb4MMandcfEHIUBVuy-31" value="" style="shape=partialRectangle;html=1;whiteSpace=wrap;connectable=0;strokeColor=#6c8ebf;overflow=hidden;fillColor=#dae8fc;top=0;left=0;bottom=0;right=0;pointerEvents=1;fontSize=16;sketch=1;hachureGap=4;jiggle=2;curveFitting=1;fontFamily=Architects Daughter;fontSource=https%3A%2F%2Ffonts.googleapis.com%2Fcss%3Ffamily%3DArchitects%2BDaughter;" vertex="1" parent="tcnb4MMandcfEHIUBVuy-30">
          <mxGeometry width="53" height="17" as="geometry">
            <mxRectangle width="53" height="17" as="alternateBounds" />
          </mxGeometry>
        </mxCell>
        <mxCell id="tcnb4MMandcfEHIUBVuy-32" value="" style="shape=partialRectangle;html=1;whiteSpace=wrap;connectable=0;strokeColor=#6c8ebf;overflow=hidden;fillColor=#dae8fc;top=0;left=0;bottom=0;right=0;pointerEvents=1;fontSize=16;sketch=1;hachureGap=4;jiggle=2;curveFitting=1;fontFamily=Architects Daughter;fontSource=https%3A%2F%2Ffonts.googleapis.com%2Fcss%3Ffamily%3DArchitects%2BDaughter;" vertex="1" parent="tcnb4MMandcfEHIUBVuy-30">
          <mxGeometry x="53" width="54" height="17" as="geometry">
            <mxRectangle width="54" height="17" as="alternateBounds" />
          </mxGeometry>
        </mxCell>
        <mxCell id="tcnb4MMandcfEHIUBVuy-33" value="" style="shape=partialRectangle;html=1;whiteSpace=wrap;connectable=0;strokeColor=#6c8ebf;overflow=hidden;fillColor=#dae8fc;top=0;left=0;bottom=0;right=0;pointerEvents=1;fontSize=16;sketch=1;hachureGap=4;jiggle=2;curveFitting=1;fontFamily=Architects Daughter;fontSource=https%3A%2F%2Ffonts.googleapis.com%2Fcss%3Ffamily%3DArchitects%2BDaughter;" vertex="1" parent="tcnb4MMandcfEHIUBVuy-30">
          <mxGeometry x="107" width="53" height="17" as="geometry">
            <mxRectangle width="53" height="17" as="alternateBounds" />
          </mxGeometry>
        </mxCell>
        <mxCell id="tcnb4MMandcfEHIUBVuy-34" value="" style="shape=tableRow;horizontal=0;startSize=0;swimlaneHead=0;swimlaneBody=0;strokeColor=#6c8ebf;top=0;left=0;bottom=0;right=0;collapsible=0;dropTarget=0;fillColor=#dae8fc;points=[[0,0.5],[1,0.5]];portConstraint=eastwest;fontSize=16;sketch=1;hachureGap=4;jiggle=2;curveFitting=1;fontFamily=Architects Daughter;fontSource=https%3A%2F%2Ffonts.googleapis.com%2Fcss%3Ffamily%3DArchitects%2BDaughter;" vertex="1" parent="tcnb4MMandcfEHIUBVuy-29">
          <mxGeometry y="47" width="160" height="16" as="geometry" />
        </mxCell>
        <mxCell id="tcnb4MMandcfEHIUBVuy-35" value="" style="shape=partialRectangle;html=1;whiteSpace=wrap;connectable=0;strokeColor=#6c8ebf;overflow=hidden;fillColor=#dae8fc;top=0;left=0;bottom=0;right=0;pointerEvents=1;fontSize=16;sketch=1;hachureGap=4;jiggle=2;curveFitting=1;fontFamily=Architects Daughter;fontSource=https%3A%2F%2Ffonts.googleapis.com%2Fcss%3Ffamily%3DArchitects%2BDaughter;" vertex="1" parent="tcnb4MMandcfEHIUBVuy-34">
          <mxGeometry width="53" height="16" as="geometry">
            <mxRectangle width="53" height="16" as="alternateBounds" />
          </mxGeometry>
        </mxCell>
        <mxCell id="tcnb4MMandcfEHIUBVuy-36" value="" style="shape=partialRectangle;html=1;whiteSpace=wrap;connectable=0;strokeColor=#6c8ebf;overflow=hidden;fillColor=#dae8fc;top=0;left=0;bottom=0;right=0;pointerEvents=1;fontSize=16;sketch=1;hachureGap=4;jiggle=2;curveFitting=1;fontFamily=Architects Daughter;fontSource=https%3A%2F%2Ffonts.googleapis.com%2Fcss%3Ffamily%3DArchitects%2BDaughter;" vertex="1" parent="tcnb4MMandcfEHIUBVuy-34">
          <mxGeometry x="53" width="54" height="16" as="geometry">
            <mxRectangle width="54" height="16" as="alternateBounds" />
          </mxGeometry>
        </mxCell>
        <mxCell id="tcnb4MMandcfEHIUBVuy-37" value="" style="shape=partialRectangle;html=1;whiteSpace=wrap;connectable=0;strokeColor=#6c8ebf;overflow=hidden;fillColor=#dae8fc;top=0;left=0;bottom=0;right=0;pointerEvents=1;fontSize=16;sketch=1;hachureGap=4;jiggle=2;curveFitting=1;fontFamily=Architects Daughter;fontSource=https%3A%2F%2Ffonts.googleapis.com%2Fcss%3Ffamily%3DArchitects%2BDaughter;" vertex="1" parent="tcnb4MMandcfEHIUBVuy-34">
          <mxGeometry x="107" width="53" height="16" as="geometry">
            <mxRectangle width="53" height="16" as="alternateBounds" />
          </mxGeometry>
        </mxCell>
        <mxCell id="tcnb4MMandcfEHIUBVuy-38" value="" style="shape=tableRow;horizontal=0;startSize=0;swimlaneHead=0;swimlaneBody=0;strokeColor=#6c8ebf;top=0;left=0;bottom=0;right=0;collapsible=0;dropTarget=0;fillColor=#dae8fc;points=[[0,0.5],[1,0.5]];portConstraint=eastwest;fontSize=16;sketch=1;hachureGap=4;jiggle=2;curveFitting=1;fontFamily=Architects Daughter;fontSource=https%3A%2F%2Ffonts.googleapis.com%2Fcss%3Ffamily%3DArchitects%2BDaughter;" vertex="1" parent="tcnb4MMandcfEHIUBVuy-29">
          <mxGeometry y="63" width="160" height="17" as="geometry" />
        </mxCell>
        <mxCell id="tcnb4MMandcfEHIUBVuy-39" value="" style="shape=partialRectangle;html=1;whiteSpace=wrap;connectable=0;strokeColor=#6c8ebf;overflow=hidden;fillColor=#dae8fc;top=0;left=0;bottom=0;right=0;pointerEvents=1;fontSize=16;sketch=1;hachureGap=4;jiggle=2;curveFitting=1;fontFamily=Architects Daughter;fontSource=https%3A%2F%2Ffonts.googleapis.com%2Fcss%3Ffamily%3DArchitects%2BDaughter;" vertex="1" parent="tcnb4MMandcfEHIUBVuy-38">
          <mxGeometry width="53" height="17" as="geometry">
            <mxRectangle width="53" height="17" as="alternateBounds" />
          </mxGeometry>
        </mxCell>
        <mxCell id="tcnb4MMandcfEHIUBVuy-40" value="" style="shape=partialRectangle;html=1;whiteSpace=wrap;connectable=0;strokeColor=#6c8ebf;overflow=hidden;fillColor=#dae8fc;top=0;left=0;bottom=0;right=0;pointerEvents=1;fontSize=16;sketch=1;hachureGap=4;jiggle=2;curveFitting=1;fontFamily=Architects Daughter;fontSource=https%3A%2F%2Ffonts.googleapis.com%2Fcss%3Ffamily%3DArchitects%2BDaughter;" vertex="1" parent="tcnb4MMandcfEHIUBVuy-38">
          <mxGeometry x="53" width="54" height="17" as="geometry">
            <mxRectangle width="54" height="17" as="alternateBounds" />
          </mxGeometry>
        </mxCell>
        <mxCell id="tcnb4MMandcfEHIUBVuy-41" value="" style="shape=partialRectangle;html=1;whiteSpace=wrap;connectable=0;strokeColor=#6c8ebf;overflow=hidden;fillColor=#dae8fc;top=0;left=0;bottom=0;right=0;pointerEvents=1;fontSize=16;sketch=1;hachureGap=4;jiggle=2;curveFitting=1;fontFamily=Architects Daughter;fontSource=https%3A%2F%2Ffonts.googleapis.com%2Fcss%3Ffamily%3DArchitects%2BDaughter;" vertex="1" parent="tcnb4MMandcfEHIUBVuy-38">
          <mxGeometry x="107" width="53" height="17" as="geometry">
            <mxRectangle width="53" height="17" as="alternateBounds" />
          </mxGeometry>
        </mxCell>
        <mxCell id="tcnb4MMandcfEHIUBVuy-95" style="edgeStyle=orthogonalEdgeStyle;shape=connector;rounded=0;sketch=1;hachureGap=4;jiggle=2;curveFitting=1;orthogonalLoop=1;jettySize=auto;html=1;exitX=0.5;exitY=1;exitDx=0;exitDy=0;entryX=0.5;entryY=0;entryDx=0;entryDy=0;entryPerimeter=0;labelBackgroundColor=default;strokeColor=default;strokeWidth=3;fontFamily=Architects Daughter;fontSource=https%3A%2F%2Ffonts.googleapis.com%2Fcss%3Ffamily%3DArchitects%2BDaughter;fontSize=16;fontColor=default;startArrow=classic;startFill=1;endArrow=classic;" edge="1" parent="1" source="tcnb4MMandcfEHIUBVuy-42" target="tcnb4MMandcfEHIUBVuy-2">
          <mxGeometry relative="1" as="geometry" />
        </mxCell>
        <mxCell id="tcnb4MMandcfEHIUBVuy-42" value="Basic Table 4" style="shape=table;startSize=30;container=1;collapsible=0;childLayout=tableLayout;strokeColor=#6c8ebf;fontSize=28;sketch=1;hachureGap=4;jiggle=2;curveFitting=1;fontFamily=FZJingLeiS-R-GB;fillColor=#dae8fc;strokeWidth=3;fontStyle=1" vertex="1" parent="1">
          <mxGeometry x="710" y="420" width="160" height="80" as="geometry" />
        </mxCell>
        <mxCell id="tcnb4MMandcfEHIUBVuy-43" value="" style="shape=tableRow;horizontal=0;startSize=0;swimlaneHead=0;swimlaneBody=0;strokeColor=#6c8ebf;top=0;left=0;bottom=0;right=0;collapsible=0;dropTarget=0;fillColor=#dae8fc;points=[[0,0.5],[1,0.5]];portConstraint=eastwest;fontSize=16;sketch=1;hachureGap=4;jiggle=2;curveFitting=1;fontFamily=Architects Daughter;fontSource=https%3A%2F%2Ffonts.googleapis.com%2Fcss%3Ffamily%3DArchitects%2BDaughter;" vertex="1" parent="tcnb4MMandcfEHIUBVuy-42">
          <mxGeometry y="30" width="160" height="17" as="geometry" />
        </mxCell>
        <mxCell id="tcnb4MMandcfEHIUBVuy-44" value="" style="shape=partialRectangle;html=1;whiteSpace=wrap;connectable=0;strokeColor=#6c8ebf;overflow=hidden;fillColor=#dae8fc;top=0;left=0;bottom=0;right=0;pointerEvents=1;fontSize=16;sketch=1;hachureGap=4;jiggle=2;curveFitting=1;fontFamily=Architects Daughter;fontSource=https%3A%2F%2Ffonts.googleapis.com%2Fcss%3Ffamily%3DArchitects%2BDaughter;" vertex="1" parent="tcnb4MMandcfEHIUBVuy-43">
          <mxGeometry width="53" height="17" as="geometry">
            <mxRectangle width="53" height="17" as="alternateBounds" />
          </mxGeometry>
        </mxCell>
        <mxCell id="tcnb4MMandcfEHIUBVuy-45" value="" style="shape=partialRectangle;html=1;whiteSpace=wrap;connectable=0;strokeColor=#6c8ebf;overflow=hidden;fillColor=#dae8fc;top=0;left=0;bottom=0;right=0;pointerEvents=1;fontSize=16;sketch=1;hachureGap=4;jiggle=2;curveFitting=1;fontFamily=Architects Daughter;fontSource=https%3A%2F%2Ffonts.googleapis.com%2Fcss%3Ffamily%3DArchitects%2BDaughter;" vertex="1" parent="tcnb4MMandcfEHIUBVuy-43">
          <mxGeometry x="53" width="54" height="17" as="geometry">
            <mxRectangle width="54" height="17" as="alternateBounds" />
          </mxGeometry>
        </mxCell>
        <mxCell id="tcnb4MMandcfEHIUBVuy-46" value="" style="shape=partialRectangle;html=1;whiteSpace=wrap;connectable=0;strokeColor=#6c8ebf;overflow=hidden;fillColor=#dae8fc;top=0;left=0;bottom=0;right=0;pointerEvents=1;fontSize=16;sketch=1;hachureGap=4;jiggle=2;curveFitting=1;fontFamily=Architects Daughter;fontSource=https%3A%2F%2Ffonts.googleapis.com%2Fcss%3Ffamily%3DArchitects%2BDaughter;" vertex="1" parent="tcnb4MMandcfEHIUBVuy-43">
          <mxGeometry x="107" width="53" height="17" as="geometry">
            <mxRectangle width="53" height="17" as="alternateBounds" />
          </mxGeometry>
        </mxCell>
        <mxCell id="tcnb4MMandcfEHIUBVuy-47" value="" style="shape=tableRow;horizontal=0;startSize=0;swimlaneHead=0;swimlaneBody=0;strokeColor=#6c8ebf;top=0;left=0;bottom=0;right=0;collapsible=0;dropTarget=0;fillColor=#dae8fc;points=[[0,0.5],[1,0.5]];portConstraint=eastwest;fontSize=16;sketch=1;hachureGap=4;jiggle=2;curveFitting=1;fontFamily=Architects Daughter;fontSource=https%3A%2F%2Ffonts.googleapis.com%2Fcss%3Ffamily%3DArchitects%2BDaughter;" vertex="1" parent="tcnb4MMandcfEHIUBVuy-42">
          <mxGeometry y="47" width="160" height="16" as="geometry" />
        </mxCell>
        <mxCell id="tcnb4MMandcfEHIUBVuy-48" value="" style="shape=partialRectangle;html=1;whiteSpace=wrap;connectable=0;strokeColor=#6c8ebf;overflow=hidden;fillColor=#dae8fc;top=0;left=0;bottom=0;right=0;pointerEvents=1;fontSize=16;sketch=1;hachureGap=4;jiggle=2;curveFitting=1;fontFamily=Architects Daughter;fontSource=https%3A%2F%2Ffonts.googleapis.com%2Fcss%3Ffamily%3DArchitects%2BDaughter;" vertex="1" parent="tcnb4MMandcfEHIUBVuy-47">
          <mxGeometry width="53" height="16" as="geometry">
            <mxRectangle width="53" height="16" as="alternateBounds" />
          </mxGeometry>
        </mxCell>
        <mxCell id="tcnb4MMandcfEHIUBVuy-49" value="" style="shape=partialRectangle;html=1;whiteSpace=wrap;connectable=0;strokeColor=#6c8ebf;overflow=hidden;fillColor=#dae8fc;top=0;left=0;bottom=0;right=0;pointerEvents=1;fontSize=16;sketch=1;hachureGap=4;jiggle=2;curveFitting=1;fontFamily=Architects Daughter;fontSource=https%3A%2F%2Ffonts.googleapis.com%2Fcss%3Ffamily%3DArchitects%2BDaughter;" vertex="1" parent="tcnb4MMandcfEHIUBVuy-47">
          <mxGeometry x="53" width="54" height="16" as="geometry">
            <mxRectangle width="54" height="16" as="alternateBounds" />
          </mxGeometry>
        </mxCell>
        <mxCell id="tcnb4MMandcfEHIUBVuy-50" value="" style="shape=partialRectangle;html=1;whiteSpace=wrap;connectable=0;strokeColor=#6c8ebf;overflow=hidden;fillColor=#dae8fc;top=0;left=0;bottom=0;right=0;pointerEvents=1;fontSize=16;sketch=1;hachureGap=4;jiggle=2;curveFitting=1;fontFamily=Architects Daughter;fontSource=https%3A%2F%2Ffonts.googleapis.com%2Fcss%3Ffamily%3DArchitects%2BDaughter;" vertex="1" parent="tcnb4MMandcfEHIUBVuy-47">
          <mxGeometry x="107" width="53" height="16" as="geometry">
            <mxRectangle width="53" height="16" as="alternateBounds" />
          </mxGeometry>
        </mxCell>
        <mxCell id="tcnb4MMandcfEHIUBVuy-51" value="" style="shape=tableRow;horizontal=0;startSize=0;swimlaneHead=0;swimlaneBody=0;strokeColor=#6c8ebf;top=0;left=0;bottom=0;right=0;collapsible=0;dropTarget=0;fillColor=#dae8fc;points=[[0,0.5],[1,0.5]];portConstraint=eastwest;fontSize=16;sketch=1;hachureGap=4;jiggle=2;curveFitting=1;fontFamily=Architects Daughter;fontSource=https%3A%2F%2Ffonts.googleapis.com%2Fcss%3Ffamily%3DArchitects%2BDaughter;" vertex="1" parent="tcnb4MMandcfEHIUBVuy-42">
          <mxGeometry y="63" width="160" height="17" as="geometry" />
        </mxCell>
        <mxCell id="tcnb4MMandcfEHIUBVuy-52" value="" style="shape=partialRectangle;html=1;whiteSpace=wrap;connectable=0;strokeColor=#6c8ebf;overflow=hidden;fillColor=#dae8fc;top=0;left=0;bottom=0;right=0;pointerEvents=1;fontSize=16;sketch=1;hachureGap=4;jiggle=2;curveFitting=1;fontFamily=Architects Daughter;fontSource=https%3A%2F%2Ffonts.googleapis.com%2Fcss%3Ffamily%3DArchitects%2BDaughter;" vertex="1" parent="tcnb4MMandcfEHIUBVuy-51">
          <mxGeometry width="53" height="17" as="geometry">
            <mxRectangle width="53" height="17" as="alternateBounds" />
          </mxGeometry>
        </mxCell>
        <mxCell id="tcnb4MMandcfEHIUBVuy-53" value="" style="shape=partialRectangle;html=1;whiteSpace=wrap;connectable=0;strokeColor=#6c8ebf;overflow=hidden;fillColor=#dae8fc;top=0;left=0;bottom=0;right=0;pointerEvents=1;fontSize=16;sketch=1;hachureGap=4;jiggle=2;curveFitting=1;fontFamily=Architects Daughter;fontSource=https%3A%2F%2Ffonts.googleapis.com%2Fcss%3Ffamily%3DArchitects%2BDaughter;" vertex="1" parent="tcnb4MMandcfEHIUBVuy-51">
          <mxGeometry x="53" width="54" height="17" as="geometry">
            <mxRectangle width="54" height="17" as="alternateBounds" />
          </mxGeometry>
        </mxCell>
        <mxCell id="tcnb4MMandcfEHIUBVuy-54" value="" style="shape=partialRectangle;html=1;whiteSpace=wrap;connectable=0;strokeColor=#6c8ebf;overflow=hidden;fillColor=#dae8fc;top=0;left=0;bottom=0;right=0;pointerEvents=1;fontSize=16;sketch=1;hachureGap=4;jiggle=2;curveFitting=1;fontFamily=Architects Daughter;fontSource=https%3A%2F%2Ffonts.googleapis.com%2Fcss%3Ffamily%3DArchitects%2BDaughter;" vertex="1" parent="tcnb4MMandcfEHIUBVuy-51">
          <mxGeometry x="107" width="53" height="17" as="geometry">
            <mxRectangle width="53" height="17" as="alternateBounds" />
          </mxGeometry>
        </mxCell>
        <mxCell id="tcnb4MMandcfEHIUBVuy-55" value="View 1" style="shape=table;startSize=30;container=1;collapsible=0;childLayout=tableLayout;strokeColor=#9673a6;fontSize=28;sketch=1;hachureGap=4;jiggle=2;curveFitting=1;fontFamily=FZJingLeiS-R-GB;fillColor=#e1d5e7;strokeWidth=3;fontStyle=1" vertex="1" parent="1">
          <mxGeometry x="420" y="250" width="160" height="80" as="geometry" />
        </mxCell>
        <mxCell id="tcnb4MMandcfEHIUBVuy-56" value="" style="shape=tableRow;horizontal=0;startSize=0;swimlaneHead=0;swimlaneBody=0;strokeColor=#9673a6;top=0;left=0;bottom=0;right=0;collapsible=0;dropTarget=0;fillColor=#e1d5e7;points=[[0,0.5],[1,0.5]];portConstraint=eastwest;fontSize=16;sketch=1;hachureGap=4;jiggle=2;curveFitting=1;fontFamily=Architects Daughter;fontSource=https%3A%2F%2Ffonts.googleapis.com%2Fcss%3Ffamily%3DArchitects%2BDaughter;" vertex="1" parent="tcnb4MMandcfEHIUBVuy-55">
          <mxGeometry y="30" width="160" height="17" as="geometry" />
        </mxCell>
        <mxCell id="tcnb4MMandcfEHIUBVuy-57" value="" style="shape=partialRectangle;html=1;whiteSpace=wrap;connectable=0;strokeColor=#9673a6;overflow=hidden;fillColor=#e1d5e7;top=0;left=0;bottom=0;right=0;pointerEvents=1;fontSize=16;sketch=1;hachureGap=4;jiggle=2;curveFitting=1;fontFamily=Architects Daughter;fontSource=https%3A%2F%2Ffonts.googleapis.com%2Fcss%3Ffamily%3DArchitects%2BDaughter;" vertex="1" parent="tcnb4MMandcfEHIUBVuy-56">
          <mxGeometry width="53" height="17" as="geometry">
            <mxRectangle width="53" height="17" as="alternateBounds" />
          </mxGeometry>
        </mxCell>
        <mxCell id="tcnb4MMandcfEHIUBVuy-58" value="" style="shape=partialRectangle;html=1;whiteSpace=wrap;connectable=0;strokeColor=#9673a6;overflow=hidden;fillColor=#e1d5e7;top=0;left=0;bottom=0;right=0;pointerEvents=1;fontSize=16;sketch=1;hachureGap=4;jiggle=2;curveFitting=1;fontFamily=Architects Daughter;fontSource=https%3A%2F%2Ffonts.googleapis.com%2Fcss%3Ffamily%3DArchitects%2BDaughter;" vertex="1" parent="tcnb4MMandcfEHIUBVuy-56">
          <mxGeometry x="53" width="54" height="17" as="geometry">
            <mxRectangle width="54" height="17" as="alternateBounds" />
          </mxGeometry>
        </mxCell>
        <mxCell id="tcnb4MMandcfEHIUBVuy-59" value="" style="shape=partialRectangle;html=1;whiteSpace=wrap;connectable=0;strokeColor=#9673a6;overflow=hidden;fillColor=#e1d5e7;top=0;left=0;bottom=0;right=0;pointerEvents=1;fontSize=16;sketch=1;hachureGap=4;jiggle=2;curveFitting=1;fontFamily=Architects Daughter;fontSource=https%3A%2F%2Ffonts.googleapis.com%2Fcss%3Ffamily%3DArchitects%2BDaughter;" vertex="1" parent="tcnb4MMandcfEHIUBVuy-56">
          <mxGeometry x="107" width="53" height="17" as="geometry">
            <mxRectangle width="53" height="17" as="alternateBounds" />
          </mxGeometry>
        </mxCell>
        <mxCell id="tcnb4MMandcfEHIUBVuy-60" value="" style="shape=tableRow;horizontal=0;startSize=0;swimlaneHead=0;swimlaneBody=0;strokeColor=#9673a6;top=0;left=0;bottom=0;right=0;collapsible=0;dropTarget=0;fillColor=#e1d5e7;points=[[0,0.5],[1,0.5]];portConstraint=eastwest;fontSize=16;sketch=1;hachureGap=4;jiggle=2;curveFitting=1;fontFamily=Architects Daughter;fontSource=https%3A%2F%2Ffonts.googleapis.com%2Fcss%3Ffamily%3DArchitects%2BDaughter;" vertex="1" parent="tcnb4MMandcfEHIUBVuy-55">
          <mxGeometry y="47" width="160" height="16" as="geometry" />
        </mxCell>
        <mxCell id="tcnb4MMandcfEHIUBVuy-61" value="" style="shape=partialRectangle;html=1;whiteSpace=wrap;connectable=0;strokeColor=#9673a6;overflow=hidden;fillColor=#e1d5e7;top=0;left=0;bottom=0;right=0;pointerEvents=1;fontSize=16;sketch=1;hachureGap=4;jiggle=2;curveFitting=1;fontFamily=Architects Daughter;fontSource=https%3A%2F%2Ffonts.googleapis.com%2Fcss%3Ffamily%3DArchitects%2BDaughter;" vertex="1" parent="tcnb4MMandcfEHIUBVuy-60">
          <mxGeometry width="53" height="16" as="geometry">
            <mxRectangle width="53" height="16" as="alternateBounds" />
          </mxGeometry>
        </mxCell>
        <mxCell id="tcnb4MMandcfEHIUBVuy-62" value="" style="shape=partialRectangle;html=1;whiteSpace=wrap;connectable=0;strokeColor=#9673a6;overflow=hidden;fillColor=#e1d5e7;top=0;left=0;bottom=0;right=0;pointerEvents=1;fontSize=16;sketch=1;hachureGap=4;jiggle=2;curveFitting=1;fontFamily=Architects Daughter;fontSource=https%3A%2F%2Ffonts.googleapis.com%2Fcss%3Ffamily%3DArchitects%2BDaughter;" vertex="1" parent="tcnb4MMandcfEHIUBVuy-60">
          <mxGeometry x="53" width="54" height="16" as="geometry">
            <mxRectangle width="54" height="16" as="alternateBounds" />
          </mxGeometry>
        </mxCell>
        <mxCell id="tcnb4MMandcfEHIUBVuy-63" value="" style="shape=partialRectangle;html=1;whiteSpace=wrap;connectable=0;strokeColor=#9673a6;overflow=hidden;fillColor=#e1d5e7;top=0;left=0;bottom=0;right=0;pointerEvents=1;fontSize=16;sketch=1;hachureGap=4;jiggle=2;curveFitting=1;fontFamily=Architects Daughter;fontSource=https%3A%2F%2Ffonts.googleapis.com%2Fcss%3Ffamily%3DArchitects%2BDaughter;" vertex="1" parent="tcnb4MMandcfEHIUBVuy-60">
          <mxGeometry x="107" width="53" height="16" as="geometry">
            <mxRectangle width="53" height="16" as="alternateBounds" />
          </mxGeometry>
        </mxCell>
        <mxCell id="tcnb4MMandcfEHIUBVuy-64" value="" style="shape=tableRow;horizontal=0;startSize=0;swimlaneHead=0;swimlaneBody=0;strokeColor=#9673a6;top=0;left=0;bottom=0;right=0;collapsible=0;dropTarget=0;fillColor=#e1d5e7;points=[[0,0.5],[1,0.5]];portConstraint=eastwest;fontSize=16;sketch=1;hachureGap=4;jiggle=2;curveFitting=1;fontFamily=Architects Daughter;fontSource=https%3A%2F%2Ffonts.googleapis.com%2Fcss%3Ffamily%3DArchitects%2BDaughter;" vertex="1" parent="tcnb4MMandcfEHIUBVuy-55">
          <mxGeometry y="63" width="160" height="17" as="geometry" />
        </mxCell>
        <mxCell id="tcnb4MMandcfEHIUBVuy-65" value="" style="shape=partialRectangle;html=1;whiteSpace=wrap;connectable=0;strokeColor=#9673a6;overflow=hidden;fillColor=#e1d5e7;top=0;left=0;bottom=0;right=0;pointerEvents=1;fontSize=16;sketch=1;hachureGap=4;jiggle=2;curveFitting=1;fontFamily=Architects Daughter;fontSource=https%3A%2F%2Ffonts.googleapis.com%2Fcss%3Ffamily%3DArchitects%2BDaughter;" vertex="1" parent="tcnb4MMandcfEHIUBVuy-64">
          <mxGeometry width="53" height="17" as="geometry">
            <mxRectangle width="53" height="17" as="alternateBounds" />
          </mxGeometry>
        </mxCell>
        <mxCell id="tcnb4MMandcfEHIUBVuy-66" value="" style="shape=partialRectangle;html=1;whiteSpace=wrap;connectable=0;strokeColor=#9673a6;overflow=hidden;fillColor=#e1d5e7;top=0;left=0;bottom=0;right=0;pointerEvents=1;fontSize=16;sketch=1;hachureGap=4;jiggle=2;curveFitting=1;fontFamily=Architects Daughter;fontSource=https%3A%2F%2Ffonts.googleapis.com%2Fcss%3Ffamily%3DArchitects%2BDaughter;" vertex="1" parent="tcnb4MMandcfEHIUBVuy-64">
          <mxGeometry x="53" width="54" height="17" as="geometry">
            <mxRectangle width="54" height="17" as="alternateBounds" />
          </mxGeometry>
        </mxCell>
        <mxCell id="tcnb4MMandcfEHIUBVuy-67" value="" style="shape=partialRectangle;html=1;whiteSpace=wrap;connectable=0;strokeColor=#9673a6;overflow=hidden;fillColor=#e1d5e7;top=0;left=0;bottom=0;right=0;pointerEvents=1;fontSize=16;sketch=1;hachureGap=4;jiggle=2;curveFitting=1;fontFamily=Architects Daughter;fontSource=https%3A%2F%2Ffonts.googleapis.com%2Fcss%3Ffamily%3DArchitects%2BDaughter;" vertex="1" parent="tcnb4MMandcfEHIUBVuy-64">
          <mxGeometry x="107" width="53" height="17" as="geometry">
            <mxRectangle width="53" height="17" as="alternateBounds" />
          </mxGeometry>
        </mxCell>
        <mxCell id="tcnb4MMandcfEHIUBVuy-90" style="edgeStyle=orthogonalEdgeStyle;shape=connector;rounded=0;sketch=1;hachureGap=4;jiggle=2;curveFitting=1;orthogonalLoop=1;jettySize=auto;html=1;exitX=0.5;exitY=1;exitDx=0;exitDy=0;labelBackgroundColor=default;strokeColor=default;strokeWidth=3;fontFamily=Architects Daughter;fontSource=https%3A%2F%2Ffonts.googleapis.com%2Fcss%3Ffamily%3DArchitects%2BDaughter;fontSize=16;fontColor=default;startArrow=classic;startFill=1;endArrow=classic;" edge="1" parent="1" source="tcnb4MMandcfEHIUBVuy-68" target="tcnb4MMandcfEHIUBVuy-42">
          <mxGeometry relative="1" as="geometry" />
        </mxCell>
        <mxCell id="tcnb4MMandcfEHIUBVuy-91" style="edgeStyle=orthogonalEdgeStyle;shape=connector;rounded=0;sketch=1;hachureGap=4;jiggle=2;curveFitting=1;orthogonalLoop=1;jettySize=auto;html=1;exitX=0.25;exitY=1;exitDx=0;exitDy=0;entryX=0.5;entryY=0;entryDx=0;entryDy=0;labelBackgroundColor=default;strokeColor=default;strokeWidth=3;fontFamily=Architects Daughter;fontSource=https%3A%2F%2Ffonts.googleapis.com%2Fcss%3Ffamily%3DArchitects%2BDaughter;fontSize=16;fontColor=default;startArrow=classic;startFill=1;endArrow=classic;" edge="1" parent="1" source="tcnb4MMandcfEHIUBVuy-68" target="tcnb4MMandcfEHIUBVuy-29">
          <mxGeometry relative="1" as="geometry" />
        </mxCell>
        <mxCell id="tcnb4MMandcfEHIUBVuy-68" value="View 2" style="shape=table;startSize=30;container=1;collapsible=0;childLayout=tableLayout;strokeColor=#9673a6;fontSize=28;sketch=1;hachureGap=4;jiggle=2;curveFitting=1;fontFamily=FZJingLeiS-R-GB;fillColor=#e1d5e7;strokeWidth=3;fontStyle=1" vertex="1" parent="1">
          <mxGeometry x="625" y="250" width="160" height="80" as="geometry" />
        </mxCell>
        <mxCell id="tcnb4MMandcfEHIUBVuy-69" value="" style="shape=tableRow;horizontal=0;startSize=0;swimlaneHead=0;swimlaneBody=0;strokeColor=#9673a6;top=0;left=0;bottom=0;right=0;collapsible=0;dropTarget=0;fillColor=#e1d5e7;points=[[0,0.5],[1,0.5]];portConstraint=eastwest;fontSize=16;sketch=1;hachureGap=4;jiggle=2;curveFitting=1;fontFamily=Architects Daughter;fontSource=https%3A%2F%2Ffonts.googleapis.com%2Fcss%3Ffamily%3DArchitects%2BDaughter;" vertex="1" parent="tcnb4MMandcfEHIUBVuy-68">
          <mxGeometry y="30" width="160" height="17" as="geometry" />
        </mxCell>
        <mxCell id="tcnb4MMandcfEHIUBVuy-70" value="" style="shape=partialRectangle;html=1;whiteSpace=wrap;connectable=0;strokeColor=#9673a6;overflow=hidden;fillColor=#e1d5e7;top=0;left=0;bottom=0;right=0;pointerEvents=1;fontSize=16;sketch=1;hachureGap=4;jiggle=2;curveFitting=1;fontFamily=Architects Daughter;fontSource=https%3A%2F%2Ffonts.googleapis.com%2Fcss%3Ffamily%3DArchitects%2BDaughter;" vertex="1" parent="tcnb4MMandcfEHIUBVuy-69">
          <mxGeometry width="53" height="17" as="geometry">
            <mxRectangle width="53" height="17" as="alternateBounds" />
          </mxGeometry>
        </mxCell>
        <mxCell id="tcnb4MMandcfEHIUBVuy-71" value="" style="shape=partialRectangle;html=1;whiteSpace=wrap;connectable=0;strokeColor=#9673a6;overflow=hidden;fillColor=#e1d5e7;top=0;left=0;bottom=0;right=0;pointerEvents=1;fontSize=16;sketch=1;hachureGap=4;jiggle=2;curveFitting=1;fontFamily=Architects Daughter;fontSource=https%3A%2F%2Ffonts.googleapis.com%2Fcss%3Ffamily%3DArchitects%2BDaughter;" vertex="1" parent="tcnb4MMandcfEHIUBVuy-69">
          <mxGeometry x="53" width="54" height="17" as="geometry">
            <mxRectangle width="54" height="17" as="alternateBounds" />
          </mxGeometry>
        </mxCell>
        <mxCell id="tcnb4MMandcfEHIUBVuy-72" value="" style="shape=partialRectangle;html=1;whiteSpace=wrap;connectable=0;strokeColor=#9673a6;overflow=hidden;fillColor=#e1d5e7;top=0;left=0;bottom=0;right=0;pointerEvents=1;fontSize=16;sketch=1;hachureGap=4;jiggle=2;curveFitting=1;fontFamily=Architects Daughter;fontSource=https%3A%2F%2Ffonts.googleapis.com%2Fcss%3Ffamily%3DArchitects%2BDaughter;" vertex="1" parent="tcnb4MMandcfEHIUBVuy-69">
          <mxGeometry x="107" width="53" height="17" as="geometry">
            <mxRectangle width="53" height="17" as="alternateBounds" />
          </mxGeometry>
        </mxCell>
        <mxCell id="tcnb4MMandcfEHIUBVuy-73" value="" style="shape=tableRow;horizontal=0;startSize=0;swimlaneHead=0;swimlaneBody=0;strokeColor=#9673a6;top=0;left=0;bottom=0;right=0;collapsible=0;dropTarget=0;fillColor=#e1d5e7;points=[[0,0.5],[1,0.5]];portConstraint=eastwest;fontSize=16;sketch=1;hachureGap=4;jiggle=2;curveFitting=1;fontFamily=Architects Daughter;fontSource=https%3A%2F%2Ffonts.googleapis.com%2Fcss%3Ffamily%3DArchitects%2BDaughter;" vertex="1" parent="tcnb4MMandcfEHIUBVuy-68">
          <mxGeometry y="47" width="160" height="16" as="geometry" />
        </mxCell>
        <mxCell id="tcnb4MMandcfEHIUBVuy-74" value="" style="shape=partialRectangle;html=1;whiteSpace=wrap;connectable=0;strokeColor=#9673a6;overflow=hidden;fillColor=#e1d5e7;top=0;left=0;bottom=0;right=0;pointerEvents=1;fontSize=16;sketch=1;hachureGap=4;jiggle=2;curveFitting=1;fontFamily=Architects Daughter;fontSource=https%3A%2F%2Ffonts.googleapis.com%2Fcss%3Ffamily%3DArchitects%2BDaughter;" vertex="1" parent="tcnb4MMandcfEHIUBVuy-73">
          <mxGeometry width="53" height="16" as="geometry">
            <mxRectangle width="53" height="16" as="alternateBounds" />
          </mxGeometry>
        </mxCell>
        <mxCell id="tcnb4MMandcfEHIUBVuy-75" value="" style="shape=partialRectangle;html=1;whiteSpace=wrap;connectable=0;strokeColor=#9673a6;overflow=hidden;fillColor=#e1d5e7;top=0;left=0;bottom=0;right=0;pointerEvents=1;fontSize=16;sketch=1;hachureGap=4;jiggle=2;curveFitting=1;fontFamily=Architects Daughter;fontSource=https%3A%2F%2Ffonts.googleapis.com%2Fcss%3Ffamily%3DArchitects%2BDaughter;" vertex="1" parent="tcnb4MMandcfEHIUBVuy-73">
          <mxGeometry x="53" width="54" height="16" as="geometry">
            <mxRectangle width="54" height="16" as="alternateBounds" />
          </mxGeometry>
        </mxCell>
        <mxCell id="tcnb4MMandcfEHIUBVuy-76" value="" style="shape=partialRectangle;html=1;whiteSpace=wrap;connectable=0;strokeColor=#9673a6;overflow=hidden;fillColor=#e1d5e7;top=0;left=0;bottom=0;right=0;pointerEvents=1;fontSize=16;sketch=1;hachureGap=4;jiggle=2;curveFitting=1;fontFamily=Architects Daughter;fontSource=https%3A%2F%2Ffonts.googleapis.com%2Fcss%3Ffamily%3DArchitects%2BDaughter;" vertex="1" parent="tcnb4MMandcfEHIUBVuy-73">
          <mxGeometry x="107" width="53" height="16" as="geometry">
            <mxRectangle width="53" height="16" as="alternateBounds" />
          </mxGeometry>
        </mxCell>
        <mxCell id="tcnb4MMandcfEHIUBVuy-77" value="" style="shape=tableRow;horizontal=0;startSize=0;swimlaneHead=0;swimlaneBody=0;strokeColor=#9673a6;top=0;left=0;bottom=0;right=0;collapsible=0;dropTarget=0;fillColor=#e1d5e7;points=[[0,0.5],[1,0.5]];portConstraint=eastwest;fontSize=16;sketch=1;hachureGap=4;jiggle=2;curveFitting=1;fontFamily=Architects Daughter;fontSource=https%3A%2F%2Ffonts.googleapis.com%2Fcss%3Ffamily%3DArchitects%2BDaughter;" vertex="1" parent="tcnb4MMandcfEHIUBVuy-68">
          <mxGeometry y="63" width="160" height="17" as="geometry" />
        </mxCell>
        <mxCell id="tcnb4MMandcfEHIUBVuy-78" value="" style="shape=partialRectangle;html=1;whiteSpace=wrap;connectable=0;strokeColor=#9673a6;overflow=hidden;fillColor=#e1d5e7;top=0;left=0;bottom=0;right=0;pointerEvents=1;fontSize=16;sketch=1;hachureGap=4;jiggle=2;curveFitting=1;fontFamily=Architects Daughter;fontSource=https%3A%2F%2Ffonts.googleapis.com%2Fcss%3Ffamily%3DArchitects%2BDaughter;" vertex="1" parent="tcnb4MMandcfEHIUBVuy-77">
          <mxGeometry width="53" height="17" as="geometry">
            <mxRectangle width="53" height="17" as="alternateBounds" />
          </mxGeometry>
        </mxCell>
        <mxCell id="tcnb4MMandcfEHIUBVuy-79" value="" style="shape=partialRectangle;html=1;whiteSpace=wrap;connectable=0;strokeColor=#9673a6;overflow=hidden;fillColor=#e1d5e7;top=0;left=0;bottom=0;right=0;pointerEvents=1;fontSize=16;sketch=1;hachureGap=4;jiggle=2;curveFitting=1;fontFamily=Architects Daughter;fontSource=https%3A%2F%2Ffonts.googleapis.com%2Fcss%3Ffamily%3DArchitects%2BDaughter;" vertex="1" parent="tcnb4MMandcfEHIUBVuy-77">
          <mxGeometry x="53" width="54" height="17" as="geometry">
            <mxRectangle width="54" height="17" as="alternateBounds" />
          </mxGeometry>
        </mxCell>
        <mxCell id="tcnb4MMandcfEHIUBVuy-80" value="" style="shape=partialRectangle;html=1;whiteSpace=wrap;connectable=0;strokeColor=#9673a6;overflow=hidden;fillColor=#e1d5e7;top=0;left=0;bottom=0;right=0;pointerEvents=1;fontSize=16;sketch=1;hachureGap=4;jiggle=2;curveFitting=1;fontFamily=Architects Daughter;fontSource=https%3A%2F%2Ffonts.googleapis.com%2Fcss%3Ffamily%3DArchitects%2BDaughter;" vertex="1" parent="tcnb4MMandcfEHIUBVuy-77">
          <mxGeometry x="107" width="53" height="17" as="geometry">
            <mxRectangle width="53" height="17" as="alternateBounds" />
          </mxGeometry>
        </mxCell>
        <mxCell id="tcnb4MMandcfEHIUBVuy-83" style="edgeStyle=orthogonalEdgeStyle;rounded=0;sketch=1;hachureGap=4;jiggle=2;curveFitting=1;orthogonalLoop=1;jettySize=auto;html=1;exitX=0;exitY=0.5;exitDx=0;exitDy=0;entryX=0.5;entryY=0;entryDx=0;entryDy=0;fontFamily=Architects Daughter;fontSource=https%3A%2F%2Ffonts.googleapis.com%2Fcss%3Ffamily%3DArchitects%2BDaughter;fontSize=16;strokeWidth=3;startArrow=classic;startFill=1;" edge="1" parent="1" source="tcnb4MMandcfEHIUBVuy-82" target="tcnb4MMandcfEHIUBVuy-3">
          <mxGeometry relative="1" as="geometry" />
        </mxCell>
        <mxCell id="tcnb4MMandcfEHIUBVuy-84" style="edgeStyle=orthogonalEdgeStyle;shape=connector;rounded=0;sketch=1;hachureGap=4;jiggle=2;curveFitting=1;orthogonalLoop=1;jettySize=auto;html=1;exitX=0.5;exitY=1;exitDx=0;exitDy=0;labelBackgroundColor=default;strokeColor=default;strokeWidth=3;fontFamily=Architects Daughter;fontSource=https%3A%2F%2Ffonts.googleapis.com%2Fcss%3Ffamily%3DArchitects%2BDaughter;fontSize=16;fontColor=default;startArrow=classic;startFill=1;endArrow=classic;" edge="1" parent="1" source="tcnb4MMandcfEHIUBVuy-82" target="tcnb4MMandcfEHIUBVuy-55">
          <mxGeometry relative="1" as="geometry" />
        </mxCell>
        <mxCell id="tcnb4MMandcfEHIUBVuy-85" style="edgeStyle=orthogonalEdgeStyle;shape=connector;rounded=0;sketch=1;hachureGap=4;jiggle=2;curveFitting=1;orthogonalLoop=1;jettySize=auto;html=1;exitX=1;exitY=0.5;exitDx=0;exitDy=0;entryX=0.5;entryY=0;entryDx=0;entryDy=0;labelBackgroundColor=default;strokeColor=default;strokeWidth=3;fontFamily=Architects Daughter;fontSource=https%3A%2F%2Ffonts.googleapis.com%2Fcss%3Ffamily%3DArchitects%2BDaughter;fontSize=16;fontColor=default;startArrow=classic;startFill=1;endArrow=classic;" edge="1" parent="1" source="tcnb4MMandcfEHIUBVuy-82" target="tcnb4MMandcfEHIUBVuy-68">
          <mxGeometry relative="1" as="geometry" />
        </mxCell>
        <mxCell id="tcnb4MMandcfEHIUBVuy-82" value="&lt;b&gt;&lt;font style=&quot;font-size: 28px;&quot;&gt;SQL&lt;/font&gt;&lt;/b&gt;" style="ellipse;whiteSpace=wrap;html=1;aspect=fixed;sketch=1;hachureGap=4;jiggle=2;curveFitting=1;fontFamily=Architects Daughter;fontSource=https%3A%2F%2Ffonts.googleapis.com%2Fcss%3Ffamily%3DArchitects%2BDaughter;fontSize=20;fillColor=#ffe6cc;strokeWidth=3;strokeColor=#d79b00;" vertex="1" parent="1">
          <mxGeometry x="360" y="70" width="80" height="80" as="geometry" />
        </mxCell>
        <mxCell id="tcnb4MMandcfEHIUBVuy-87" style="edgeStyle=orthogonalEdgeStyle;shape=connector;rounded=0;sketch=1;hachureGap=4;jiggle=2;curveFitting=1;orthogonalLoop=1;jettySize=auto;html=1;exitX=0;exitY=0.5;exitDx=0;exitDy=0;entryX=0.5;entryY=0;entryDx=0;entryDy=0;labelBackgroundColor=default;strokeColor=default;strokeWidth=3;fontFamily=Architects Daughter;fontSource=https%3A%2F%2Ffonts.googleapis.com%2Fcss%3Ffamily%3DArchitects%2BDaughter;fontSize=16;fontColor=default;startArrow=classic;startFill=1;endArrow=classic;" edge="1" parent="1" source="tcnb4MMandcfEHIUBVuy-64" target="tcnb4MMandcfEHIUBVuy-16">
          <mxGeometry relative="1" as="geometry" />
        </mxCell>
      </root>
    </mxGraphModel>
  </diagram>
</mxfile>
